HIERARCHY
ROOT Hips
{
  OFFSET 6.30346 96.4372 -60.166
  CHANNELS 6 Xposition Yposition Zposition Zrotation Xrotation Yrotation
  JOINT RightUpLeg
  {
    OFFSET -8.9458 -8.66707 0.101652
    CHANNELS 3 Zrotation Xrotation Yrotation
    JOINT RightLeg
    {
      OFFSET 0 -44.4227 1.3727
      CHANNELS 3 Zrotation Xrotation Yrotation
      JOINT RightFoot
      {
        OFFSET 0.253549 -42.0924 -1.46059
        CHANNELS 3 Zrotation Xrotation Yrotation
        JOINT RightToes
        {
          OFFSET 0.04 -4.41509 8.4991
          CHANNELS 3 Zrotation Xrotation Yrotation
          End Site
          {
            OFFSET -0.08 -0.137448 9.77979
          }
        }
      }
    }
  }
  JOINT Spine
  {
    OFFSET 0 11.8905 0
    CHANNELS 3 Zrotation Xrotation Yrotation
    JOINT Spine1
    {
      OFFSET 0 25.6574 0.127663
      CHANNELS 3 Zrotation Xrotation Yrotation
      JOINT HEad
      {
        OFFSET 0 8.73416 0.011341
        CHANNELS 3 Zrotation Xrotation Yrotation
        End Site
        {
          OFFSET -0.29 12.7742 2.51395
        }
      }
      JOINT LeftShoulder1
      {
        OFFSET 8.99 -0.362252 -0.22
        CHANNELS 3 Zrotation Xrotation Yrotation
        JOINT LeftArm
        {
          OFFSET 10.2827 -0.00338 0.322123
          CHANNELS 3 Zrotation Xrotation Yrotation
          JOINT LeftForeArm
          {
            OFFSET 32.7669 0.099144 -1.42434
            CHANNELS 3 Zrotation Xrotation Yrotation
            JOINT LeftHand
            {
              OFFSET 27.5643 0.085362 1.02216
              CHANNELS 3 Zrotation Xrotation Yrotation
              End Site
              {
                OFFSET 16.7443 -0.6 1.50291
              }
            }
          }
        }
      }
      JOINT RightShoulder
      {
        OFFSET -8.99 -0.362252 -0.22
        CHANNELS 3 Zrotation Xrotation Yrotation
        JOINT RightArm
        {
          OFFSET -10.2827 -0.00338 0.322123
          CHANNELS 3 Zrotation Xrotation Yrotation
          JOINT RightForeArm
          {
            OFFSET -32.8971 0.099144 -1.42434
            CHANNELS 3 Zrotation Xrotation Yrotation
            JOINT RightHand
            {
              OFFSET -27.4921 0.085362 1.02216
              CHANNELS 3 Zrotation Xrotation Yrotation
              End Site
              {
                OFFSET -16.6312 -0.6 1.50291
              }
            }
          }
        }
      }
    }
  }
  JOINT LeftUpLeg
  {
    OFFSET 8.9458 -8.66707 0.101652
    CHANNELS 3 Zrotation Xrotation Yrotation
    JOINT LeftLeg
    {
      OFFSET 0 -44.4227 1.3727
      CHANNELS 3 Zrotation Xrotation Yrotation
      JOINT LeftFoot
      {
        OFFSET -0.253549 -42.0924 -1.46059
        CHANNELS 3 Zrotation Xrotation Yrotation
        JOINT LeftToes
        {
          OFFSET -0.04 -4.41509 8.4991
          CHANNELS 3 Zrotation Xrotation Yrotation
          End Site
          {
            OFFSET 0.08 -0.047448 9.77979
          }
        }
      }
    }
  }
}
MOTION
Frames:	12
Frame Time:	0.0166667
-135.959 93.2863 22.5785 0.13224 5.51469 -138.9 -21.2219 -26.0954 -3.47071 6.27467 28.608 -8.14806 33.7009 37.887 -13.6966 -33.14 -35.023 11.7553 2.04823 11.0319 -2.06895 -3.52153 22.0657 -3.38123 14.6338 -13.4001 -19.4452 3.18055e-015 3.18055e-015 -0 -63.7669 -6.25377 -53.0106 15.9688 11.5061 -130.399 -3.71877 9.31782 19.3174 22.3908 -0.49092 -4.38165 66.6637 -42.1776 34.7154 -9.64677 25.8615 136.408 -0.177125 9.89956 -4.50074 35.1065 -8.78855 -6.62161 -11.9259 18.8636 23.4636 2.28608 27.8471 -0.891982 35.1352 -40.4043 13.7925 
-134.828 93.7725 21.9137 0.176661 5.81026 -138.634 -18.8499 -24.7518 -3.36411 4.46555 26.9681 -8.5604 35.1923 38.4418 -14.5202 -30.8443 -32.6177 11.763 1.66516 10.8544 -2.45692 -3.15021 21.7214 -4.17729 14.7119 -11.8105 -18.2946 -4.77083e-015 -4.77083e-015 3.18055e-015 -65.6615 -6.39993 -56.1338 17.1528 12.0292 -130.279 -3.31501 9.33404 20.3414 22.8351 -0.548583 -4.57145 67.1404 -40.9267 35.5856 -10.7321 26.4679 133.668 0.809287 9.88409 -5.55477 35.5042 -9.76281 -4.73274 -15.1809 23.5428 27.5464 5.61056 27.6549 -1.91231 37.1953 -41.9139 14.9498 
-133.731 93.8573 21.3495 -0.0154221 6.44097 -138.504 -16.9417 -23.7024 -2.85741 3.64952 26.6286 -8.95185 37.4671 38.4067 -15.51 -30.2596 -31.9397 11.6411 1.50974 10.8239 -2.86136 -2.85576 21.6255 -4.95285 14.6309 -10.3255 -16.9461 6.36111e-015 -1.59028e-015 -3.18055e-015 -67.7796 -6.60198 -59.9863 19.1061 12.8054 -129.713 -3.6319 9.22929 21.9212 23.1921 -0.602797 -4.75076 67.7748 -39.5613 36.3592 -12.2268 26.7393 131.018 2.11155 9.83052 -7.18129 35.6212 -9.80073 -3.2663 -17.7896 27.4946 29.878 7.07341 28.6655 -2.43455 40.5493 -43.9814 17.2478 
-132.636 93.6179 20.9109 -0.430691 7.34174 -138.476 -15.6738 -23.1337 -2.16806 3.60897 27.5393 -8.86333 40.3196 38.0595 -16.6506 -31.1703 -32.7608 11.39 1.56374 10.9473 -3.27668 -2.64278 21.7999 -5.70797 14.4316 -9.06384 -15.4799 -8.82781e-032 1.59028e-015 3.18055e-015 -70.0291 -6.91496 -64.2644 21.6728 14.0423 -128.659 -4.6852 8.98145 23.7247 23.3436 -0.621016 -4.80645 68.5743 -38.4364 37.1166 -13.6623 27.0596 128.749 3.48275 9.71518 -9.42923 35.3155 -8.86965 -2.65946 -19.3719 29.9691 30.5614 7.01789 30.4874 -2.54307 44.4374 -45.9744 20.2047 
-131.532 93.1538 20.5893 -0.981009 8.42966 -138.51 -15.0838 -23.0582 -1.34612 4.17807 29.2764 -7.56778 44.1887 37.7685 -18.2712 -32.9597 -34.5821 11.3066 1.71927 11.1894 -3.69287 -2.44208 22.1965 -6.45269 14.1174 -8.142 -13.9565 -6.36111e-015 1.59028e-015 3.18055e-015 -72.3101 -7.44799 -68.5841 24.5372 15.938 -127.237 -6.21059 8.61953 25.3951 23.145 -0.54665 -4.5319 69.4269 -37.9526 37.8794 -14.4619 27.6628 127.171 4.83172 9.52138 -12.2256 34.6791 -7.10729 -3.06926 -19.7972 30.5699 30.7135 7.07718 32.452 -2.70096 48.6127 -47.6981 23.6406 
-130.428 92.5369 20.342 -1.52002 9.62018 -138.551 -15.0751 -23.3911 -0.273674 5.33283 31.4319 -4.58213 49.2405 37.1951 -20.3228 -34.7271 -36.6822 11.7485 1.90442 11.4833 -4.08572 -2.10835 22.7033 -7.19084 13.6154 -7.66644 -12.4777 -4.77083e-015 1.59028e-015 -0 -74.4859 -8.28674 -72.5294 27.2338 18.4846 -125.695 -7.78166 8.22963 26.6962 22.4689 -0.341251 -3.76144 70.1573 -38.4873 38.5839 -14.4919 28.41 126.752 6.51269 9.20869 -15.3703 34.0228 -4.77937 -4.35241 -19.1612 29.3805 31.7109 8.96816 34.1249 -3.51549 53.2423 -49.1758 27.6862 
-129.332 91.8091 20.0961 -1.91932 10.8004 -138.507 -15.5478 -24.0497 1.21559 7.26138 33.8051 -0.185587 54.4261 35.4906 -21.8731 -35.5071 -38.2682 13.0171 2.1311 11.7522 -4.42451 -1.52486 23.1731 -7.90333 12.8389 -7.69521 -11.2308 3.18055e-015 -7.95139e-015 -6.36111e-015 -76.337 -9.46001 -75.7067 29.2345 21.3714 -124.273 -8.99973 7.91063 27.5943 21.3868 -0.0497215 -2.60097 70.4696 -40.1209 39.1159 -13.9682 29.0177 127.876 8.80843 8.7354 -18.4004 33.6599 -2.28558 -6.09771 -17.6844 26.9912 33.8021 12.8607 35.1626 -5.08325 57.6463 -50.1011 31.8724 
-128.21 91.0066 19.7615 -2.17502 11.784 -138.242 -16.5216 -24.9397 3.0751 10.0925 36.2382 4.3376 57.8842 32.6169 -21.9073 -35.2278 -39.2365 15.0654 2.41612 11.925 -4.6768 -0.747564 23.4626 -8.51858 11.8152 -8.18468 -10.4648 3.18055e-015 -4.77083e-015 -6.36111e-015 -77.568 -10.9186 -77.7671 30.1211 24.0653 -123.134 -9.64397 7.72511 28.1584 20.1983 0.209226 -1.48096 69.8651 -42.3963 39.35 -13.1139 29.0986 130.49 11.5817 8.13026 -20.8234 33.6838 -0.111287 -7.76196 -15.694 24.2349 35.8647 17.2171 35.4613 -6.79665 60.7215 -50.2692 35.2818 
-126.991 90.1893 19.2611 -2.43306 12.3204 -137.598 -18.1038 -25.9177 4.9128 13.4788 38.5134 7.17624 58.3764 29.693 -20.5178 -35.1062 -40.2834 16.9227 2.71239 11.9519 -4.80252 -0.0573936 23.4768 -8.89065 10.7627 -8.96274 -10.4218 -6.36111e-015 -1.59028e-015 -0 -77.8281 -12.5021 -78.4001 29.7955 25.996 -122.396 -9.69406 7.69355 28.3806 19.2762 0.328323 -0.914492 67.7705 -44.4788 39.162 -12.2596 27.9088 134.16 14.5876 7.46466 -22.4896 33.9156 1.32071 -8.88165 -13.5844 21.7392 36.5352 20.3235 35.542 -8.01782 62.2509 -49.9396 37.5019 
-125.596 89.4612 18.5526 -2.88023 12.1722 -136.461 -20.3895 -26.8008 6.26976 16.7402 40.3908 6.8868 55.6935 27.935 -18.5129 -36.5506 -41.8809 16.8871 2.93978 11.8171 -4.75422 0.185785 23.1947 -8.84197 9.9885 -9.80656 -11.2802 -3.18055e-015 3.18055e-015 -3.18055e-015 -76.757 -13.9238 -77.3473 28.5101 26.7304 -122.14 -9.21034 7.8163 28.1617 18.8154 0.278331 -1.1342 64.1337 -45.9851 38.5627 -11.9419 24.7047 138.416 17.6667 6.77649 -23.6316 34.0147 1.79201 -9.23697 -11.6514 19.6849 35.0987 21.3176 35.9808 -8.49581 62.3579 -49.4627 38.3039 
-123.981 88.9463 17.628 -3.57405 11.2178 -134.813 -23.3561 -27.3876 6.95315 19.3697 41.5726 2.94017 50.0213 27.7072 -16.2746 -39.6082 -43.2053 13.875 3.06728 11.5312 -4.49872 -0.176662 22.6448 -8.27741 9.62595 -10.597 -13.118 1.59028e-015 3.18055e-015 -6.36111e-015 -74.1389 -14.8102 -74.458 26.6612 26.0393 -122.343 -8.24664 8.07606 27.4622 18.6109 0.10936 -1.93741 59.9852 -47.8218 37.9159 -12.4466 19.8923 142.773 20.6397 6.04912 -24.711 33.6703 1.34265 -8.91944 -9.94269 17.8583 31.4818 19.7474 36.7373 -8.01931 60.582 -48.9367 37.0431 
-122.153 88.7383 16.5046 -4.3616 9.53456 -132.774 -26.7135 -27.4909 7.07248 21.1433 41.7123 -3.88196 41.7413 28.1227 -13.4829 -41.6147 -42.2558 9.34728 3.13562 11.1181 -4.04375 -0.955205 21.8729 -7.26867 9.48393 -11.388 -15.8424 -3.18055e-015 -3.18055e-015 3.18055e-015 -70.1881 -14.8256 -69.8029 24.6138 23.9508 -122.9 -6.93348 8.41753 26.3915 18.0643 -0.0649132 -2.79571 56.6947 -51.353 37.653 -13.5644 14.9848 146.487 23.308 5.2114 -26.2604 32.7984 0.278577 -8.2459 -8.26788 15.7757 26.1126 15.202 37.2238 -6.27852 56.0388 -48.0692 32.8992 
